<svg width="800" height="620" viewBox="0 0 800 620" fill="none" xmlns="http://www.w3.org/2000/svg">
  <rect width="800" height="620" rx="40" fill="#FFF4F8"/>
  <circle cx="602" cy="122" r="74" fill="#DFF2FF"/>
  <circle cx="154" cy="124" r="58" fill="#F8DBE7"/>
  <path d="M392 470C443.5 470 485 428.5 485 377C485 325.5 443.5 284 392 284C340.5 284 299 325.5 299 377C299 428.5 340.5 470 392 470Z" fill="#A9D7F8"/>
  <path d="M318 316C318 267.399 357.399 228 406 228C454.601 228 494 267.399 494 316C494 364.601 454.601 404 406 404C357.399 404 318 364.601 318 316Z" fill="#F3B4CC"/>
  <path d="M256 351C256 300.19 297.19 259 348 259C398.81 259 440 300.19 440 351C440 401.81 398.81 443 348 443C297.19 443 256 401.81 256 351Z" fill="#FFF0BF"/>
  <path d="M364 473L431 473L470 580C474.868 593.339 464.988 607 450.788 607H344.212C330.012 607 320.132 593.339 325 580L364 473Z" fill="#C98D61"/>
  <path d="M344 526H452" stroke="#9F6846" stroke-width="10" stroke-linecap="round"/>
  <path d="M355 560H441" stroke="#9F6846" stroke-width="10" stroke-linecap="round"/>
</svg>
